{"accessors":[{"bufferView":0,"byteOffset":0,"componentType":5126,"count":153,"max":[1.4646,0.82251,0.074983],"min":[-1.4646,-0.696216,-0.074982],"normalized":false,"type":"VEC3"},{"bufferView":1,"byteOffset":0,"componentType":5126,"count":153,"max":[0,0.000031,0.000076,-1],"min":[-1,-1,-1,-1],"normalized":false,"type":"VEC4"},{"bufferView":2,"byteOffset":0,"componentType":5126,"count":153,"max":[1,1,1],"min":[-1,-0.000031,-1],"normalized":false,"type":"VEC3"},{"bufferView":3,"byteOffset":0,"componentType":5126,"count":153,"max":[1,1],"min":[0,0],"normalized":false,"type":"VEC2"},{"bufferView":4,"byteOffset":0,"componentType":5125,"count":153,"max":[152],"min":[0],"normalized":false,"type":"SCALAR"},{"bufferView":5,"byteOffset":0,"componentType":5126,"count":1734,"max":[4.61926,1.183941,4.030737],"min":[-7.979341,-2.609612,-8.588498],"normalized":false,"type":"VEC3"},{"bufferView":6,"byteOffset":0,"componentType":5126,"count":1734,"max":[0.999217,0.999944,0.999887,1],"min":[-1,-0.999943,-0.999844,-1],"normalized":false,"type":"VEC4"},{"bufferView":7,"byteOffset":0,"componentType":5126,"count":1734,"max":[1,0.99984,0.99984],"min":[-1,-0.99984,-0.999839],"normalized":false,"type":"VEC3"},{"bufferView":8,"byteOffset":0,"componentType":5126,"count":1734,"max":[1,1],"min":[0,0],"normalized":false,"type":"VEC2"},{"bufferView":9,"byteOffset":0,"componentType":5125,"count":1734,"max":[1733],"min":[0],"normalized":false,"type":"SCALAR"},{"bufferView":10,"byteOffset":0,"componentType":5126,"count":17702,"max":[0.499091,0.200386,0.163151],"min":[-0.499641,-0.197559,-0.157939],"normalized":false,"type":"VEC3"},{"bufferView":11,"byteOffset":0,"componentType":5126,"count":17702,"max":[0.999564,0.999571],"min":[0.000436,0.000429],"normalized":false,"type":"VEC2"},{"bufferView":12,"byteOffset":0,"componentType":5125,"count":27876,"max":[7743],"min":[0],"normalized":false,"type":"SCALAR"},{"bufferView":13,"byteOffset":0,"componentType":5126,"count":36,"max":[0.5,0.5,0.5],"min":[-0.5,-0.5,-0.5],"normalized":false,"type":"VEC3"},{"bufferView":14,"byteOffset":0,"componentType":5126,"count":36,"max":[0,0,0.000015,1],"min":[-1,-1,-1,1],"normalized":false,"type":"VEC4"},{"bufferView":15,"byteOffset":0,"componentType":5126,"count":36,"max":[1,1,1],"min":[-1,-1,-1],"normalized":false,"type":"VEC3"},{"bufferView":16,"byteOffset":0,"componentType":5126,"count":36,"max":[1,1],"min":[0,0],"normalized":false,"type":"VEC2"},{"bufferView":17,"byteOffset":0,"componentType":5125,"count":36,"max":[35],"min":[0],"normalized":false,"type":"SCALAR"}],"asset":{"generator":"Godot Engine v4.2.2.stable.official@15073afe3856abd2aa1622492fe50026c7d63dc1","version":"2.0"},"bufferViews":[{"buffer":0,"byteLength":1836,"byteOffset":0},{"buffer":0,"byteLength":2448,"byteOffset":1836},{"buffer":0,"byteLength":1836,"byteOffset":4284},{"buffer":0,"byteLength":1224,"byteOffset":6120},{"buffer":0,"byteLength":612,"byteOffset":7344},{"buffer":0,"byteLength":20808,"byteOffset":7956},{"buffer":0,"byteLength":27744,"byteOffset":28764},{"buffer":0,"byteLength":20808,"byteOffset":56508},{"buffer":0,"byteLength":13872,"byteOffset":77316},{"buffer":0,"byteLength":6936,"byteOffset":91188},{"buffer":0,"byteLength":212424,"byteOffset":98124},{"buffer":0,"byteLength":141616,"byteOffset":310548},{"buffer":0,"byteLength":111504,"byteOffset":452164},{"buffer":0,"byteLength":432,"byteOffset":563668},{"buffer":0,"byteLength":576,"byteOffset":564100},{"buffer":0,"byteLength":432,"byteOffset":564676},{"buffer":0,"byteLength":288,"byteOffset":565108},{"buffer":0,"byteLength":144,"byteOffset":565396}],"buffers":[{"byteLength":565540,"uri":"01-scene0.bin"}],"cameras":[{"perspective":{"yfov":1.30899691581726,"zfar":4000,"znear":0.0500000007450581},"type":"perspective"}],"extensions":{"KHR_lights_punctual":{"lights":[{"color":[1,1,1],"intensity":1,"range":340282346638528860000000000000000000000,"type":"directional"},{"color":[1,1,1],"intensity":0.814999997615814,"range":5,"type":"point"}]}},"extensionsUsed":["GODOT_single_root","KHR_lights_punctual"],"images":[{"uri":"textures%2Fmaterial_0_albedo.png"}],"materials":[{"extensions":{},"pbrMetallicRoughness":{"baseColorFactor":[0.99999988079071,0.99999988079071,0.99999988079071,1],"metallicFactor":0,"roughnessFactor":1}},{"extensions":{},"pbrMetallicRoughness":{"baseColorFactor":[0.99999988079071,0.99999988079071,0.99999988079071,1],"metallicFactor":0,"roughnessFactor":1}},{"extensions":{},"name":"material_0","pbrMetallicRoughness":{"baseColorFactor":[0.99999988079071,0.99999988079071,0.99999988079071,1],"baseColorTexture":{"index":0},"metallicFactor":1,"roughnessFactor":1}},{"extensions":{},"pbrMetallicRoughness":{"baseColorFactor":[0.99999988079071,0.99999988079071,0.99999988079071,1],"metallicFactor":0,"roughnessFactor":1}}],"meshes":[{"extras":{"targetNames":[]},"primitives":[{"attributes":{"NORMAL":2,"POSITION":0,"TANGENT":1,"TEXCOORD_0":3},"indices":4,"material":0,"mode":4},{"attributes":{"NORMAL":7,"POSITION":5,"TANGENT":6,"TEXCOORD_0":8},"indices":9,"material":1,"mode":4}]},{"extras":{"targetNames":[]},"primitives":[{"attributes":{"POSITION":10,"TEXCOORD_0":11},"indices":12,"material":2,"mode":4}]},{"extras":{"targetNames":[]},"primitives":[{"attributes":{"NORMAL":15,"POSITION":13,"TANGENT":14,"TEXCOORD_0":16},"indices":17,"material":3,"mode":4}]}],"nodes":[{"children":[1,2,12],"extensions":{},"name":"Node3D"},{"extensions":{"KHR_lights_punctual":{"light":0}},"name":"DirectionalLight3D","rotation":[-0.15645785629749,0.803956985473633,0.559527039527893,0.126899868249893],"translation":[0.19454699754715,0.352616995573044,-0.40553799271584]},{"children":[3,4,5,6,7,10],"extensions":{},"mesh":0,"name":"CSGBox3D2","rotation":[0.00896216277033091,0,0,0.999959826469421],"translation":[0.964600026607513,0.632748007774353,-0.42501801252365]},{"extensions":{},"name":"CSGCylinder3D","rotation":[0.703326404094696,0,0,0.710867047309875],"scale":[1.66649997234344,1.00467705726624,1.64484345912933],"translation":[-0.03724670037627,-0.27257001399994,-0.00026336300652]},{"extensions":{},"name":"CSGBox3D22","rotation":[-0.00896215438843,0,0,0.999959826469421],"translation":[-1.6800400018692,-0.95475298166275,-2.27887988090515]},{"extensions":{},"name":"CSGSphere3D","rotation":[-0.00896215438843,0,0,0.999959826469421],"translation":[-5.98411989212036,-0.71283501386642,-4.46186017990112]},{"extensions":{},"name":"CSGSphere3D2","rotation":[-0.00896215438843,0,0,0.999959826469421],"translation":[-5.73726987838745,-1.06922996044159,1.44439995288849]},{"children":[8],"extensions":{},"name":"chibis","rotation":[-0.00787759758532,-0.47683212161064,0.0042736423201859,0.87894868850708],"scale":[2.660475730896,2.98737978935242,4.09327077865601],"translation":[2.13807010650635,-0.19964699447155,-3.46184992790222]},{"children":[9],"extensions":{},"name":"world"},{"extensions":{},"mesh":1,"name":"geometry_0"},{"children":[11],"extensions":{"KHR_lights_punctual":{"light":1}},"name":"OmniLight3D","rotation":[-0.00896215438843,0,0,0.999959826469421],"translation":[1.4326000213623,-0.22690500319004,-3.01223993301392]},{"camera":0,"extensions":{},"name":"Camera3D","rotation":[-0.02113017812371,-0.82701867818832,-0.12472806125879,0.547755897045136],"translation":[-3.65408992767334,1.12011003494263,0.373744994401932]},{"extensions":{},"mesh":2,"name":"CSGBox3D24","scale":[7.51630020141602,2.45068001747131,6.42705011367798],"translation":[3,1.3725700378418,7]}],"samplers":[{"magFilter":9729,"minFilter":9987,"wrapS":10497,"wrapT":10497}],"scene":0,"scenes":[{"nodes":[0]}],"textures":[{"sampler":0,"source":0}]}